<svg xmlns="http://www.w3.org/2000/svg" width="213.431" height="200" viewBox="0 0 213.431 200"><defs><style>.a{fill:#fff;}</style></defs><g transform="translate(-35.211 -53)"><g transform="translate(35.211 53)"><g transform="translate(0 0)"><g transform="translate(6.716 170.404)"><path class="a" d="M219.749,462.6H76.251A28.283,28.283,0,0,1,48,434.345,1.345,1.345,0,0,1,49.345,433H246.655A1.345,1.345,0,0,1,248,434.345,28.283,28.283,0,0,1,219.749,462.6ZM50.726,435.691a25.594,25.594,0,0,0,25.526,24.215h143.5a25.594,25.594,0,0,0,25.525-24.215Z" transform="translate(-48 -433)"/></g><g transform="translate(0 170.404)"><path class="a" d="M253.113,435.691H39.682V433H253.113Z" transform="translate(-39.682 -433)"/></g><g transform="translate(11.2 76.233)"><path class="a" d="M247.686,319.861a1.345,1.345,0,0,1-1.345-1.345,92.825,92.825,0,0,0-185.65,0,1.345,1.345,0,1,1-2.691,0,95.516,95.516,0,0,1,191.031,0A1.345,1.345,0,0,1,247.686,319.861Z" transform="translate(-58 -223)"/></g><g transform="translate(33.621 125.974)"><path class="a" d="M109.345,380.637A1.345,1.345,0,0,1,108,379.292c0-16.764,6.828-35.588,16.6-45.774.085-.01,1.977,1.872,1.941,1.863-9.335,9.728-15.855,27.784-15.855,43.912A1.345,1.345,0,0,1,109.345,380.637Z" transform="translate(-108 -333.518)"/></g><g transform="translate(89.675 44.843)"><path class="a" d="M250.04,187.081a17.04,17.04,0,1,1,17.04-17.04A17.06,17.06,0,0,1,250.04,187.081Zm0-31.39a14.35,14.35,0,1,0,14.35,14.35A14.366,14.366,0,0,0,250.04,155.691Z" transform="translate(-233 -153)"/></g><g transform="translate(7.797)"><g transform="translate(8.963 7.367)"><path class="a" d="M73.729,103.649c-2.971-10.822-5.538-20.169-.366-28.182a13.187,13.187,0,0,1,18.226-3.928c4.994,3.223,6.189,7.291,5.944,12.621,4.756-2.418,8.954-3.006,13.949.218a13.19,13.19,0,0,1,3.939,18.234,18.154,18.154,0,0,1-5.608,5.553,1.345,1.345,0,1,1-1.449-2.268,15.515,15.515,0,0,0,4.8-4.744,10.5,10.5,0,0,0-3.138-14.514c-4.126-2.663-7.493-2.394-13.347,1.068a17.255,17.255,0,0,1-2.022-1.3c.743-6.76-.4-9.94-4.524-12.6a10.5,10.5,0,0,0-14.506,3.127c-4.519,7-2.216,15.39.7,26.01.881,3.21,1.789,6.517,2.595,10.067,3.575-.73,6.97-1.265,10.266-1.785l.823-.13a1.345,1.345,0,1,1,.42,2.658l-.824.13c-3.658.577-12.476,2.234-12.476,2.234S74.708,107.214,73.729,103.649Z" transform="translate(-70.398 -69.429)"/></g><g transform="translate(27.421 36.052)"><g transform="translate(0 0)"><path class="a" d="M114.161,160.359c-2.328-8.478-4.338-15.8-.247-22.138a10.543,10.543,0,0,1,14.575-3.141c3.813,2.461,4.849,5.641,4.769,9.571a11.85,11.85,0,0,1,5.219-1.364,9.937,9.937,0,0,1,5.468,1.768,10.56,10.56,0,0,1,3.15,14.581c-4.089,6.335-11.587,7.517-20.269,8.886-2.837.448-9.852,1.621-9.852,1.621S114.92,163.124,114.161,160.359Zm8.621-24.273a7.832,7.832,0,0,0-6.608,3.595c-3.438,5.327-1.664,11.787.581,19.966.662,2.411,1.343,4.892,1.954,7.548,2.677-.539,5.223-.94,7.7-1.33,8.376-1.32,14.992-2.364,18.428-7.688a7.867,7.867,0,0,0-2.349-10.861,7.245,7.245,0,0,0-4.009-1.338c-1.661,0-3.468.65-6.045,2.174a22.616,22.616,0,0,1-2.021-1.3c.562-5.114-.291-7.512-3.38-9.506A7.82,7.82,0,0,0,122.782,136.086Z" transform="translate(-111.559 -133.395)"/></g></g><circle class="a" cx="4.484" cy="4.484" r="4.484" transform="translate(94.435 91.031)"/><circle class="a" cx="4.484" cy="4.484" r="4.484" transform="translate(49.591 113.453)"/><circle class="a" cx="4.484" cy="4.484" r="4.484" transform="translate(0.264 64.126)"/><circle class="a" cx="4.484" cy="4.484" r="4.484" transform="translate(76.497 14.798)"/><circle class="a" cx="4.484" cy="4.484" r="4.484" transform="translate(143.762 46.188)"/><circle class="a" cx="4.484" cy="4.484" r="4.484" transform="translate(188.605 113.453)"/><circle class="a" cx="4.484" cy="4.484" r="4.484" transform="translate(125.825 149.327)"/><g transform="translate(74.808 125.56)"><g transform="translate(0)"><path class="a" d="M235.058,360.728a41.916,41.916,0,0,1-9.669-1.658c-2.029-.5-7.819-1.127-7.819-1.127s1.07-6.271,1.341-8.34c.844-6.441,1.572-12,6.246-15.2a8.051,8.051,0,0,1,11.189,2.1,7.429,7.429,0,0,1,.757,7.6,7.388,7.388,0,0,1,6.81,3.467,8.064,8.064,0,0,1-2.1,11.2,11.578,11.578,0,0,1-6.755,1.954Z" transform="translate(-217.571 -332.999)"/></g></g><g transform="translate(170.837 13.847)"><path class="a" d="M438.84,116.785l-7.848-7.848v-1.9l6.9-6.9-6.9-6.9v-1.9l7.848-7.848,1.9,1.9-6.9,6.9,6.9,6.9a1.345,1.345,0,0,1,0,1.9l-6.9,6.9,6.9,6.9Z" transform="translate(-430.993 -83.493)"/></g><g transform="translate(0 85.228)"><path class="a" d="M67.226,260.6l-11.958-2.989-.625-2.256,7.191-7.191-12.483-2.5.527-2.638,14.948,2.99.687,2.271-7.288,7.289,9.653,2.413Z" transform="translate(-49.351 -243.032)"/></g><g transform="translate(110.253 103.269)"><path class="a" d="M300.649,308.878c-3.238-7.3-6.035-13.613-3.2-19.891a9.668,9.668,0,0,1,12.8-4.84c3.727,1.681,5.118,4.35,5.605,7.821a10.119,10.119,0,0,1,5.563-1.917,9.766,9.766,0,0,1,8.863,13.744c-2.831,6.275-9.41,8.352-17.03,10.756-2.478.782-8.583,2.826-8.583,2.826S301.7,311.251,300.649,308.878Zm5.621-22.9a7,7,0,0,0-6.371,4.113c-2.337,5.181.111,10.7,3.21,17.694.9,2.036,1.832,4.131,2.723,6.387,2.285-.825,4.474-1.516,6.6-2.187,7.292-2.3,13.051-4.119,15.387-9.3a6.986,6.986,0,0,0-3.5-9.24,7.052,7.052,0,0,0-2.908-.707c-1.718,0-3.412.81-5.849,2.794.023.067-2.21-.976-2.194-.99-.182-4.6-1.25-6.6-4.231-7.946A6.92,6.92,0,0,0,306.27,285.981Z" transform="translate(-296.276 -283.29)"/></g><g transform="translate(111.026)"><path class="a" d="M308.314,73.628a10.314,10.314,0,1,1,10.314-10.314A10.326,10.326,0,0,1,308.314,73.628Zm0-17.937a7.623,7.623,0,1,0,7.623,7.623A7.632,7.632,0,0,0,308.314,55.691Z" transform="translate(-298 -53)"/></g><g transform="translate(182.775 80.717)"><path class="a" d="M466.072,249.144a8.072,8.072,0,1,1,8.072-8.072A8.081,8.081,0,0,1,466.072,249.144Zm0-13.453a5.381,5.381,0,1,0,5.381,5.381A5.387,5.387,0,0,0,466.072,235.691Z" transform="translate(-458 -233)"/></g></g></g></g></g></svg>