<svg xmlns="http://www.w3.org/2000/svg" width="198.282" height="203.621" viewBox="0 0 198.282 203.621"><defs><style>.a{fill:none;}.a,.b{stroke:#fff;stroke-width:3px;}.b{fill:#fff;}</style></defs><g transform="translate(4363.755 9002.646)"><path class="a" d="M4,3H166.408L139.744,94.3H26.624Z" transform="translate(-4333.882 -8944.117)"/><line class="a" x2="113.928" transform="translate(-4304.43 -8918.089)"/><line class="a" x1="13.736" transform="matrix(-0.966, -0.259, 0.259, -0.966, -4232.484, -8966.837)"/><line class="a" x1="13.736" transform="matrix(-0.966, -0.259, 0.259, -0.966, -4229.45, -8977.637)"/><line class="a" x1="13.736" transform="matrix(-0.966, -0.259, 0.259, -0.966, -4236.083, -8953.909)"/><line class="a" x2="104.232" transform="translate(-4301.198 -8898.293)"/><line class="a" x2="94.536" transform="translate(-4297.966 -8878.497)"/><path class="a" d="M51.128,0H32.544C24.512,0,18,5.969,18,13.332s6.512,13.332,14.544,13.332h4.085s4.675-9.7,15.431-9.7,14.858,9.7,14.858,9.7h54.506" transform="translate(-4349.498 -8849.813)"/><path class="a" d="M58.678.082,5.288,0,0,21.208" transform="translate(-4342.473 -8991.915) rotate(76)"/><circle class="a" cx="16.16" cy="16.16" r="16.16" transform="translate(-4313.722 -8832.846)"/><path class="a" d="M45.873,0A34.448,34.448,0,0,1,64.747,30.876a34.3,34.3,0,0,1-34.1,34.5A34.143,34.143,0,0,1,0,46.021" transform="translate(-4288.943 -8908.517) rotate(-135)"/><path class="a" d="M0,0A34.448,34.448,0,0,1,18.875,30.876c0,.324,0,.647-.021,1.221" transform="translate(-4274.517 -8940.953) rotate(-135)"/><path class="a" d="M0,32.1A34.449,34.449,0,0,0,18.875,1.221c0-.324,0-.647-.021-1.221" transform="translate(-4324.824 -8963.649) rotate(-45)"/><circle class="a" cx="16.16" cy="16.16" r="16.16" transform="translate(-4228.882 -8832.846)"/><circle class="b" cx="4" cy="4" r="4" transform="translate(-4216.746 -8820.71)"/><circle class="b" cx="4" cy="4" r="4" transform="translate(-4301.586 -8820.71)"/><path class="a" d="M27.846,14.014V39.52A13.736,13.736,0,0,1,14.11,53.256h-.374A13.736,13.736,0,0,1,0,39.52V0" transform="matrix(-0.966, -0.259, 0.259, -0.966, -4232.562, -8941.067)"/><path class="a" d="M30.652,13.805c-3.052,4.568-7.878,7.607-13.28,7.607C7.778,21.412,0,11.825,0,0" transform="translate(-4169.899 -8941.521) rotate(180)"/><path class="a" d="M30.384,0c0,11.825-7.778,21.412-17.372,21.412-5.1,0-9.694-2.713-13.012-7.225" transform="translate(-4199.307 -8941.521) rotate(180)"/><path class="a" d="M-4148.147-8977.4c-15.791,0-13.288,12.82-13.288,24.96" transform="translate(-38.893 -2.016)"/></g></svg>