<svg xmlns="http://www.w3.org/2000/svg" width="194.142" height="231.989" viewBox="0 0 194.142 231.989"><defs><style>.a{fill:none;}.a,.b{stroke:#fff;stroke-width:3px;}.b{fill:#fff;}</style></defs><g transform="translate(4019.994 9159.325)"><circle class="a" cx="10.961" cy="10.961" r="10.961" transform="matrix(0.966, -0.259, 0.259, 0.966, -3954.088, -9136.976)"/><path class="a" d="M0,0A56.883,56.883,0,0,1,48.114,49.715" transform="matrix(0.788, 0.616, -0.616, 0.788, -3920.697, -9137.805)"/><path class="a" d="M0,0A53.722,53.722,0,0,1,19.135,35.18" transform="translate(-3949.631 -9108.835) rotate(7)"/><path class="a" d="M0,0A53.677,53.677,0,0,1,2.358,10.628" transform="translate(-3965.029 -9117.569) rotate(-51)"/><path class="a" d="M0,0A43.086,43.086,0,0,1,42.554,36.673" transform="translate(-3902.096 -9053.824) rotate(-45)"/><path class="a" d="M0,0A43.279,43.279,0,0,1,14.09,2.363" transform="translate(-3839.072 -9050.709) rotate(49)"/><circle class="a" cx="10.961" cy="10.961" r="10.961" transform="matrix(0.966, -0.259, 0.259, 0.966, -3898.709, -9151.814)"/><circle class="b" cx="10.961" cy="10.961" r="10.961" transform="matrix(0.966, -0.259, 0.259, 0.966, -3854.536, -9091.202)"/><circle class="a" cx="10.961" cy="10.961" r="10.961" transform="matrix(0.966, -0.259, 0.259, 0.966, -3855.533, -9016.741)"/><circle class="a" cx="10.961" cy="10.961" r="10.961" transform="matrix(0.966, -0.259, 0.259, 0.966, -4002.667, -9021.833)"/><circle class="b" cx="4.053" cy="4.053" r="4.053" transform="matrix(0.966, -0.259, 0.259, 0.966, -3976.501, -9058.262)"/><g transform="translate(-3992.979 -9110.818)"><path class="a" d="M14.54,0A7.27,7.27,0,0,1,7.27,7.27,7.27,7.27,0,0,1,0,0" transform="matrix(0.259, 0.966, -0.966, 0.259, 7.022, 0)"/><path class="a" d="M14.54,0A7.27,7.27,0,0,1,7.27,7.27,7.27,7.27,0,0,1,0,0" transform="matrix(0.259, 0.966, -0.966, 0.259, 10.605, 13.935)"/><path class="a" d="M14.54,0A7.27,7.27,0,0,1,7.27,7.27,7.27,7.27,0,0,1,0,0" transform="matrix(0.259, 0.966, -0.966, 0.259, 14.24, 27.869)"/></g><g transform="translate(-3880.447 -9082.102) rotate(-135)"><path class="a" d="M14.54,0A7.27,7.27,0,0,1,7.27,7.27,7.27,7.27,0,0,1,0,0" transform="matrix(0.259, 0.966, -0.966, 0.259, 7.022, 0)"/><path class="a" d="M14.54,0A7.27,7.27,0,0,1,7.27,7.27,7.27,7.27,0,0,1,0,0" transform="matrix(0.259, 0.966, -0.966, 0.259, 10.605, 13.935)"/><path class="a" d="M14.54,0A7.27,7.27,0,0,1,7.27,7.27,7.27,7.27,0,0,1,0,0" transform="matrix(0.259, 0.966, -0.966, 0.259, 14.24, 27.869)"/></g><g transform="translate(-3868.669 -9032.022) rotate(60)"><path class="a" d="M14.54,0A7.27,7.27,0,0,1,7.27,7.27,7.27,7.27,0,0,1,0,0" transform="matrix(0.259, 0.966, -0.966, 0.259, 7.022, 0)"/><path class="a" d="M14.54,0A7.27,7.27,0,0,1,7.27,7.27,7.27,7.27,0,0,1,0,0" transform="matrix(0.259, 0.966, -0.966, 0.259, 10.605, 13.935)"/><path class="a" d="M14.54,0A7.27,7.27,0,0,1,7.27,7.27,7.27,7.27,0,0,1,0,0" transform="matrix(0.259, 0.966, -0.966, 0.259, 14.24, 27.869)"/></g><g transform="translate(-4015.818 -9082.103)"><line class="a" x2="30.353" transform="translate(60.159 16.505)"/><line class="a" x2="79.254" transform="translate(55.1 41.799)"/><line class="a" x2="56.49" transform="translate(49.198 67.092)"/><line class="a" x2="32.882" transform="translate(44.139 92.386)"/><line class="a" x2="9.274" transform="translate(39.08 117.68)"/><path class="a" d="M41.549,0,83.1,124.783H0Z" transform="translate(71.965 149.614) rotate(-150)"/></g></g></svg>