<svg xmlns="http://www.w3.org/2000/svg" width="185.671" height="161.839" viewBox="0 0 185.671 161.839"><defs><style>.a{fill:#fff;}</style></defs><path class="a" d="M4.651,322.3l7.808,19.555L20.37,322.3h4.651L12.358,352.618,0,322.3Zm35.613,0v28.212H36.021V322.3Zm29.808,4.006H58.767v6.79H69.733V337.1H58.767v9.438H70.072v4.006H54.523V322.3H70.072Zm13.071,24.206V320.4l20.574,21.524V322.3h4.244v29.91l-20.54-21.422v19.759H83.143Zm39.076,0V320.4l20.574,21.524V322.3h4.244v29.91l-20.574-21.422v19.759h-4.244Zm55.847-6.858H165.981l-3.157,6.858H158.24l13.953-29.978,13.478,29.978H181.02Zm-1.731-3.972-4.176-9.574-4.38,9.574Z" transform="translate(0 -211.625)"/><g transform="translate(8.997 147.512)"><path class="a" d="M26.5,448.046v-12.7h2.648a10.109,10.109,0,0,1,3.022.373,5.868,5.868,0,0,1,2.173,1.256,6.561,6.561,0,0,1-.068,9.438,5.813,5.813,0,0,1-2.139,1.256,9.876,9.876,0,0,1-2.988.339H26.5Zm1.9-1.8h.849a7.632,7.632,0,0,0,2.139-.272,4.855,4.855,0,0,0,1.562-.917,4.288,4.288,0,0,0,1.426-3.361,4.5,4.5,0,0,0-1.392-3.4,5.258,5.258,0,0,0-3.7-1.154h-.849v9.1Zm17.28-10.9v12.7h-1.9v-12.7Zm15.277,1.9-1.562.917a2.856,2.856,0,0,0-.815-.985,1.93,1.93,0,0,0-1.052-.272,1.9,1.9,0,0,0-1.324.441,1.451,1.451,0,0,0-.509,1.12c0,.611.475,1.12,1.392,1.494l1.256.509A5.347,5.347,0,0,1,60.62,442a3.442,3.442,0,0,1,.713,2.207,3.837,3.837,0,0,1-1.154,2.886,3.966,3.966,0,0,1-2.92,1.154,3.926,3.926,0,0,1-2.716-.984,4.4,4.4,0,0,1-1.324-2.75l1.935-.441a3.383,3.383,0,0,0,.475,1.562,2.037,2.037,0,0,0,1.731.815,2,2,0,0,0,1.494-.611,2.046,2.046,0,0,0,.577-1.528,2.189,2.189,0,0,0-.1-.679,1.886,1.886,0,0,0-.306-.577,2.059,2.059,0,0,0-.577-.475,8.852,8.852,0,0,0-.815-.441l-1.222-.509c-1.731-.747-2.614-1.8-2.614-3.225a3.03,3.03,0,0,1,1.086-2.376,3.925,3.925,0,0,1,2.716-.985,3.976,3.976,0,0,1,3.361,2.207Zm11.441-.1v10.9H70.465v-10.9h-2.92v-1.8h7.741v1.8Zm13.953,5.466,3.938,5.4H87.949l-3.633-5.194h-.339v5.194h-1.9V435.349h2.241a5.542,5.542,0,0,1,3.633.951,3.509,3.509,0,0,1,1.222,2.784,3.648,3.648,0,0,1-.781,2.309A3.339,3.339,0,0,1,86.354,442.614Zm-2.376-1.426h.611c1.8,0,2.716-.679,2.716-2.071q0-1.935-2.648-1.935h-.679Zm15.176-5.839v12.7h-1.9v-12.7Zm8.114,12.7v-12.7h1.9a8.19,8.19,0,0,1,2.037.2,2.78,2.78,0,0,1,1.29.679,3.577,3.577,0,0,1,.849,1.222,3.794,3.794,0,0,1,.306,1.494,2.96,2.96,0,0,1-1.052,2.309,3.042,3.042,0,0,1,1.6,1.222,3.622,3.622,0,0,1-.475,4.515,3.48,3.48,0,0,1-1.426.883,7.849,7.849,0,0,1-2.173.238h-2.852Zm1.9-7.265h.611a2.259,2.259,0,0,0,1.562-.475,1.8,1.8,0,0,0,.509-1.392,1.718,1.718,0,0,0-.509-1.358,2.188,2.188,0,0,0-1.494-.475h-.679Zm0,5.466h1.188a2.894,2.894,0,0,0,1.9-.509,1.751,1.751,0,0,0,.645-1.392,1.829,1.829,0,0,0-.611-1.392,3.178,3.178,0,0,0-2.139-.543h-.985Zm15.006-10.9v7.639a3.96,3.96,0,0,0,.543,2.376,2.676,2.676,0,0,0,2.241,1.086,2.591,2.591,0,0,0,2.241-1.086,4.224,4.224,0,0,0,.543-2.376v-7.639h1.9v8.182a4.48,4.48,0,0,1-1.256,3.293,4.691,4.691,0,0,1-3.463,1.46,4.634,4.634,0,0,1-4.685-4.753v-8.182Zm19.08,1.8v10.9h-1.9v-10.9h-2.92v-1.8h7.741v1.8Zm11.577-1.8v12.7h-1.9v-12.7Zm7.469,6.281a6.19,6.19,0,0,1,1.969-4.617,6.436,6.436,0,0,1,4.685-1.935,6.607,6.607,0,0,1,6.586,6.586,6.21,6.21,0,0,1-1.969,4.651,6.5,6.5,0,0,1-4.753,1.9,6.6,6.6,0,0,1-4.413-1.7A6.2,6.2,0,0,1,162.3,441.63Zm1.935.034a4.608,4.608,0,0,0,1.426,3.463,4.493,4.493,0,0,0,3.259,1.358,4.587,4.587,0,0,0,3.361-1.392,4.633,4.633,0,0,0,1.358-3.395,4.58,4.58,0,0,0-1.358-3.4,4.458,4.458,0,0,0-3.327-1.392,4.587,4.587,0,0,0-3.361,1.392,4.452,4.452,0,0,0-1.358,3.361Zm18.774,6.383V434.5l9.268,9.676v-8.827h1.9v13.478l-9.268-9.642v8.895h-1.9Z" transform="translate(-26.5 -434.5)"/></g><g transform="translate(39.823)"><path class="a" d="M207.267,26.209l-3.6,3.6a33.551,33.551,0,0,1-8.827,31.947L171.11,85.486,123.649,38.058l11.577-11.577,9.506-9.506,2.682-2.682a33.529,33.529,0,0,1,49.974,2.818l3.191-3.191a32.516,32.516,0,0,0-2.546-2.784,38.071,38.071,0,0,0-53.811,0l-2.682,2.682-9.506,9.506L117.3,38.058l53.81,53.81L198,64.98a37.748,37.748,0,0,0,11.136-26.888,37.366,37.366,0,0,0-1.867-11.882Z" transform="translate(-117.3)"/><path class="a" d="M0,0H4.481V18.6H0Z" transform="matrix(0.707, -0.707, 0.707, 0.707, 1.592, 3.838)"/><path class="a" d="M267.328,1.9,253.612,15.616l-9.778,9.778L218.27,50.957,191.857,24.545,188.7,27.736l29.57,29.57,27.5-27.5,10.185-10.219,14.531-14.5Z" transform="translate(-164.46 -1.255)"/></g></svg>