<svg width="44" height="44" viewBox="0 0 44 44" fill="none" xmlns="http://www.w3.org/2000/svg">
<path fill-rule="evenodd" clip-rule="evenodd" d="M34.6464 37.8536C34.5527 37.9473 34.4255 38 34.2929 38H27.2194C27.0796 38 26.9461 37.9414 26.8514 37.8385L12.1981 21.9103C12.1565 21.8651 12.1237 21.8127 12.1011 21.7556L12.0727 21.6839C12.026 21.5657 12.026 21.4343 12.0727 21.3161L12.1011 21.2444C12.1237 21.1873 12.1565 21.1349 12.1981 21.0897L26.8514 5.16148C26.9461 5.05856 27.0796 5 27.2194 5H34.2929C34.4255 5 34.5527 5.05268 34.6464 5.14645L34.8536 5.35355C34.9473 5.44732 35 5.5745 35 5.70711L35 37.2929C35 37.4255 34.9473 37.5527 34.8536 37.6464L34.6464 37.8536ZM34 6.5C34 6.22386 33.7761 6 33.5 6H27.7188C27.5793 6 27.4462 6.05828 27.3515 6.16077L13.501 21.1582C13.3231 21.3508 13.3242 21.6481 13.5036 21.8394L27.5685 36.842C27.663 36.9428 27.795 37 27.9332 37H33.5C33.7761 37 34 36.7761 34 36.5L34 6.5Z" fill="#54B3A1" stroke="#54B3A1"/>
</svg>
