<svg width="44" height="44" viewBox="0 0 44 44" fill="none" xmlns="http://www.w3.org/2000/svg">
<path fill-rule="evenodd" clip-rule="evenodd" d="M9.35355 6.14645C9.44732 6.05268 9.5745 6 9.70711 6H16.7806C16.9204 6 17.0539 6.05856 17.1486 6.16148L31.8019 22.0897C31.8435 22.1349 31.8763 22.1873 31.8989 22.2444L31.9273 22.3161C31.974 22.4343 31.974 22.5657 31.9273 22.6839L31.8989 22.7556C31.8763 22.8127 31.8435 22.8651 31.8019 22.9103L17.1486 38.8385C17.0539 38.9414 16.9204 39 16.7806 39H9.70711C9.5745 39 9.44732 38.9473 9.35355 38.8536L9.14645 38.6464C9.05268 38.5527 9 38.4255 9 38.2929V6.70711C9 6.5745 9.05268 6.44732 9.14645 6.35355L9.35355 6.14645ZM10 37.5C10 37.7761 10.2239 38 10.5 38H16.2812C16.4207 38 16.5538 37.9417 16.6485 37.8392L30.499 22.8418C30.6769 22.6492 30.6758 22.3519 30.4964 22.1606L16.4315 7.15803C16.337 7.0572 16.205 7 16.0668 7H10.5C10.2239 7 10 7.22386 10 7.5V37.5Z" fill="#54B3A1" stroke="#54B3A1"/>
</svg>
